<mxfile host="app.diagrams.net" agent="Mozilla/5.0 (Windows NT 10.0; Win64; x64) AppleWebKit/537.36 (KHTML, like Gecko) Chrome/133.0.0.0 Safari/537.36" version="26.0.16">
  <diagram name="Page-1" id="PJbHKJOFqi7zpqZjvh1F">
    <mxGraphModel dx="1221" dy="2444" grid="1" gridSize="10" guides="1" tooltips="1" connect="1" arrows="1" fold="1" page="1" pageScale="1" pageWidth="1100" pageHeight="850" math="0" shadow="0">
      <root>
        <mxCell id="0" />
        <mxCell id="1" parent="0" />
        <mxCell id="u48JciJkg6jwbKqmyjxf-1" value="User" style="swimlane;fontStyle=1;align=center;verticalAlign=top;childLayout=stackLayout;horizontal=1;startSize=26;horizontalStack=0;resizeParent=1;resizeParentMax=0;resizeLast=0;collapsible=1;marginBottom=0;whiteSpace=wrap;html=1;" parent="1" vertex="1">
          <mxGeometry x="15" y="33" width="160" height="190" as="geometry" />
        </mxCell>
        <mxCell id="u48JciJkg6jwbKqmyjxf-2" value="+ name: String&lt;div&gt;+ email: String&lt;/div&gt;&lt;div&gt;+ password: String&lt;/div&gt;" style="text;strokeColor=none;fillColor=none;align=left;verticalAlign=top;spacingLeft=4;spacingRight=4;overflow=hidden;rotatable=0;points=[[0,0.5],[1,0.5]];portConstraint=eastwest;whiteSpace=wrap;html=1;" parent="u48JciJkg6jwbKqmyjxf-1" vertex="1">
          <mxGeometry y="26" width="160" height="64" as="geometry" />
        </mxCell>
        <mxCell id="u48JciJkg6jwbKqmyjxf-3" value="" style="line;strokeWidth=1;fillColor=none;align=left;verticalAlign=middle;spacingTop=-1;spacingLeft=3;spacingRight=3;rotatable=0;labelPosition=right;points=[];portConstraint=eastwest;strokeColor=inherit;" parent="u48JciJkg6jwbKqmyjxf-1" vertex="1">
          <mxGeometry y="90" width="160" height="8" as="geometry" />
        </mxCell>
        <mxCell id="u48JciJkg6jwbKqmyjxf-4" value="+ getName(): String&lt;div&gt;+ makeEvent(): Event&lt;/div&gt;&lt;div&gt;+ deleteEvent(): Event&lt;/div&gt;&lt;div&gt;+ modifyEvent(): Event&lt;/div&gt;&lt;div&gt;&lt;br&gt;&lt;/div&gt;" style="text;strokeColor=none;fillColor=none;align=left;verticalAlign=top;spacingLeft=4;spacingRight=4;overflow=hidden;rotatable=0;points=[[0,0.5],[1,0.5]];portConstraint=eastwest;whiteSpace=wrap;html=1;" parent="u48JciJkg6jwbKqmyjxf-1" vertex="1">
          <mxGeometry y="98" width="160" height="92" as="geometry" />
        </mxCell>
        <mxCell id="u48JciJkg6jwbKqmyjxf-5" value="Event" style="swimlane;fontStyle=1;align=center;verticalAlign=top;childLayout=stackLayout;horizontal=1;startSize=26;horizontalStack=0;resizeParent=1;resizeParentMax=0;resizeLast=0;collapsible=1;marginBottom=0;whiteSpace=wrap;html=1;" parent="1" vertex="1">
          <mxGeometry x="315" y="33" width="160" height="190" as="geometry" />
        </mxCell>
        <mxCell id="u48JciJkg6jwbKqmyjxf-6" value="+ name: String&lt;div&gt;+ date: Date&lt;/div&gt;&lt;div&gt;+ time: Time&lt;/div&gt;&lt;div&gt;+ type: Type&lt;/div&gt;&lt;div&gt;+ description: String&lt;/div&gt;" style="text;strokeColor=none;fillColor=none;align=left;verticalAlign=top;spacingLeft=4;spacingRight=4;overflow=hidden;rotatable=0;points=[[0,0.5],[1,0.5]];portConstraint=eastwest;whiteSpace=wrap;html=1;" parent="u48JciJkg6jwbKqmyjxf-5" vertex="1">
          <mxGeometry y="26" width="160" height="76" as="geometry" />
        </mxCell>
        <mxCell id="u48JciJkg6jwbKqmyjxf-7" value="" style="line;strokeWidth=1;fillColor=none;align=left;verticalAlign=middle;spacingTop=-1;spacingLeft=3;spacingRight=3;rotatable=0;labelPosition=right;points=[];portConstraint=eastwest;strokeColor=inherit;" parent="u48JciJkg6jwbKqmyjxf-5" vertex="1">
          <mxGeometry y="102" width="160" height="8" as="geometry" />
        </mxCell>
        <mxCell id="u48JciJkg6jwbKqmyjxf-8" value="+ makeEvent(): Event&lt;div&gt;+ modifyEvent(): Event&lt;/div&gt;&lt;div&gt;+ deleteEvent(): Event&lt;/div&gt;&lt;div&gt;+ setType(): Type&lt;/div&gt;&lt;div&gt;+ changeType(): Type&lt;/div&gt;" style="text;strokeColor=none;fillColor=none;align=left;verticalAlign=top;spacingLeft=4;spacingRight=4;overflow=hidden;rotatable=0;points=[[0,0.5],[1,0.5]];portConstraint=eastwest;whiteSpace=wrap;html=1;" parent="u48JciJkg6jwbKqmyjxf-5" vertex="1">
          <mxGeometry y="110" width="160" height="80" as="geometry" />
        </mxCell>
        <mxCell id="u48JciJkg6jwbKqmyjxf-9" value="Type" style="swimlane;fontStyle=1;align=center;verticalAlign=top;childLayout=stackLayout;horizontal=1;startSize=26;horizontalStack=0;resizeParent=1;resizeParentMax=0;resizeLast=0;collapsible=1;marginBottom=0;whiteSpace=wrap;html=1;" parent="1" vertex="1">
          <mxGeometry x="610" y="83" width="160" height="90" as="geometry" />
        </mxCell>
        <mxCell id="u48JciJkg6jwbKqmyjxf-10" value="&lt;div&gt;+ name: String&lt;/div&gt;&lt;div&gt;+ color: String&lt;/div&gt;&lt;div&gt;+ genre/type: String&lt;/div&gt;" style="text;strokeColor=none;fillColor=none;align=left;verticalAlign=top;spacingLeft=4;spacingRight=4;overflow=hidden;rotatable=0;points=[[0,0.5],[1,0.5]];portConstraint=eastwest;whiteSpace=wrap;html=1;" parent="u48JciJkg6jwbKqmyjxf-9" vertex="1">
          <mxGeometry y="26" width="160" height="64" as="geometry" />
        </mxCell>
        <mxCell id="u48JciJkg6jwbKqmyjxf-13" value="User" style="shape=umlActor;verticalLabelPosition=bottom;verticalAlign=top;html=1;" parent="1" vertex="1">
          <mxGeometry x="70" y="682.5" width="30" height="60" as="geometry" />
        </mxCell>
        <mxCell id="u48JciJkg6jwbKqmyjxf-16" value="Planner System" style="shape=rect;html=1;verticalAlign=top;fontStyle=1;whiteSpace=wrap;align=center;" parent="1" vertex="1">
          <mxGeometry x="280" y="380" width="480" height="620" as="geometry" />
        </mxCell>
        <mxCell id="u48JciJkg6jwbKqmyjxf-17" value="Create Account" style="ellipse;whiteSpace=wrap;html=1;" parent="1" vertex="1">
          <mxGeometry x="350" y="430" width="140" height="70" as="geometry" />
        </mxCell>
        <mxCell id="u48JciJkg6jwbKqmyjxf-18" value="Log In" style="ellipse;whiteSpace=wrap;html=1;" parent="1" vertex="1">
          <mxGeometry x="350" y="520" width="140" height="70" as="geometry" />
        </mxCell>
        <mxCell id="u48JciJkg6jwbKqmyjxf-19" value="Add Event" style="ellipse;whiteSpace=wrap;html=1;" parent="1" vertex="1">
          <mxGeometry x="355" y="612.5" width="140" height="70" as="geometry" />
        </mxCell>
        <mxCell id="u48JciJkg6jwbKqmyjxf-20" value="Modify Event" style="ellipse;whiteSpace=wrap;html=1;" parent="1" vertex="1">
          <mxGeometry x="355" y="710" width="140" height="70" as="geometry" />
        </mxCell>
        <mxCell id="u48JciJkg6jwbKqmyjxf-21" value="Delete Event" style="ellipse;whiteSpace=wrap;html=1;" parent="1" vertex="1">
          <mxGeometry x="350" y="800" width="140" height="70" as="geometry" />
        </mxCell>
        <mxCell id="u48JciJkg6jwbKqmyjxf-22" value="View Events" style="ellipse;whiteSpace=wrap;html=1;" parent="1" vertex="1">
          <mxGeometry x="350" y="890" width="140" height="70" as="geometry" />
        </mxCell>
        <mxCell id="u48JciJkg6jwbKqmyjxf-23" value="" style="edgeStyle=none;html=1;endArrow=none;verticalAlign=bottom;rounded=0;exitX=0.5;exitY=0.5;exitDx=0;exitDy=0;exitPerimeter=0;entryX=0;entryY=0.5;entryDx=0;entryDy=0;" parent="1" source="u48JciJkg6jwbKqmyjxf-13" target="u48JciJkg6jwbKqmyjxf-17" edge="1">
          <mxGeometry width="160" relative="1" as="geometry">
            <mxPoint x="260" y="660" as="sourcePoint" />
            <mxPoint x="420" y="660" as="targetPoint" />
          </mxGeometry>
        </mxCell>
        <mxCell id="u48JciJkg6jwbKqmyjxf-24" value="" style="edgeStyle=none;html=1;endArrow=none;verticalAlign=bottom;rounded=0;exitX=0.5;exitY=0.5;exitDx=0;exitDy=0;exitPerimeter=0;" parent="1" source="u48JciJkg6jwbKqmyjxf-13" target="u48JciJkg6jwbKqmyjxf-18" edge="1">
          <mxGeometry width="160" relative="1" as="geometry">
            <mxPoint x="160" y="695" as="sourcePoint" />
            <mxPoint x="355" y="515" as="targetPoint" />
          </mxGeometry>
        </mxCell>
        <mxCell id="u48JciJkg6jwbKqmyjxf-25" value="" style="edgeStyle=none;html=1;endArrow=none;verticalAlign=bottom;rounded=0;exitX=0.5;exitY=0.5;exitDx=0;exitDy=0;exitPerimeter=0;" parent="1" source="u48JciJkg6jwbKqmyjxf-13" target="u48JciJkg6jwbKqmyjxf-19" edge="1">
          <mxGeometry width="160" relative="1" as="geometry">
            <mxPoint x="170" y="705" as="sourcePoint" />
            <mxPoint x="365" y="525" as="targetPoint" />
          </mxGeometry>
        </mxCell>
        <mxCell id="u48JciJkg6jwbKqmyjxf-26" value="" style="edgeStyle=none;html=1;endArrow=none;verticalAlign=bottom;rounded=0;exitX=0.5;exitY=0.5;exitDx=0;exitDy=0;exitPerimeter=0;" parent="1" source="u48JciJkg6jwbKqmyjxf-13" target="u48JciJkg6jwbKqmyjxf-20" edge="1">
          <mxGeometry width="160" relative="1" as="geometry">
            <mxPoint x="180" y="715" as="sourcePoint" />
            <mxPoint x="375" y="535" as="targetPoint" />
          </mxGeometry>
        </mxCell>
        <mxCell id="u48JciJkg6jwbKqmyjxf-27" value="" style="edgeStyle=none;html=1;endArrow=none;verticalAlign=bottom;rounded=0;exitX=0.5;exitY=0.5;exitDx=0;exitDy=0;exitPerimeter=0;" parent="1" source="u48JciJkg6jwbKqmyjxf-13" target="u48JciJkg6jwbKqmyjxf-21" edge="1">
          <mxGeometry width="160" relative="1" as="geometry">
            <mxPoint x="190" y="725" as="sourcePoint" />
            <mxPoint x="385" y="545" as="targetPoint" />
          </mxGeometry>
        </mxCell>
        <mxCell id="u48JciJkg6jwbKqmyjxf-28" value="" style="edgeStyle=none;html=1;endArrow=none;verticalAlign=bottom;rounded=0;exitX=0.5;exitY=0.5;exitDx=0;exitDy=0;exitPerimeter=0;" parent="1" source="u48JciJkg6jwbKqmyjxf-13" target="u48JciJkg6jwbKqmyjxf-22" edge="1">
          <mxGeometry width="160" relative="1" as="geometry">
            <mxPoint x="200" y="735" as="sourcePoint" />
            <mxPoint x="395" y="555" as="targetPoint" />
          </mxGeometry>
        </mxCell>
        <mxCell id="u48JciJkg6jwbKqmyjxf-33" value="Database&lt;div&gt;&lt;br&gt;&lt;/div&gt;" style="shape=umlActor;verticalLabelPosition=bottom;verticalAlign=top;html=1;" parent="1" vertex="1">
          <mxGeometry x="860" y="840" width="30" height="60" as="geometry" />
        </mxCell>
        <mxCell id="u48JciJkg6jwbKqmyjxf-36" value="" style="edgeStyle=none;html=1;endArrow=none;verticalAlign=bottom;rounded=0;entryX=0.5;entryY=0.5;entryDx=0;entryDy=0;entryPerimeter=0;" parent="1" source="3n1oB_12dKx8cGzKArvL-7" target="u48JciJkg6jwbKqmyjxf-40" edge="1">
          <mxGeometry width="160" relative="1" as="geometry">
            <mxPoint x="95" y="723" as="sourcePoint" />
            <mxPoint x="386" y="936" as="targetPoint" />
          </mxGeometry>
        </mxCell>
        <mxCell id="u48JciJkg6jwbKqmyjxf-37" value="" style="edgeStyle=none;html=1;endArrow=none;verticalAlign=bottom;rounded=0;entryX=0.5;entryY=0.5;entryDx=0;entryDy=0;entryPerimeter=0;" parent="1" source="u48JciJkg6jwbKqmyjxf-20" target="u48JciJkg6jwbKqmyjxf-40" edge="1">
          <mxGeometry width="160" relative="1" as="geometry">
            <mxPoint x="474" y="720" as="sourcePoint" />
            <mxPoint x="785" y="880" as="targetPoint" />
          </mxGeometry>
        </mxCell>
        <mxCell id="u48JciJkg6jwbKqmyjxf-38" value="" style="edgeStyle=none;html=1;endArrow=none;verticalAlign=bottom;rounded=0;entryX=0.5;entryY=0.5;entryDx=0;entryDy=0;entryPerimeter=0;" parent="1" source="3n1oB_12dKx8cGzKArvL-1" target="u48JciJkg6jwbKqmyjxf-40" edge="1">
          <mxGeometry width="160" relative="1" as="geometry">
            <mxPoint x="484" y="730" as="sourcePoint" />
            <mxPoint x="795" y="890" as="targetPoint" />
          </mxGeometry>
        </mxCell>
        <mxCell id="u48JciJkg6jwbKqmyjxf-40" value="&lt;div&gt;Node Js&lt;/div&gt;" style="shape=umlActor;verticalLabelPosition=bottom;verticalAlign=top;html=1;" parent="1" vertex="1">
          <mxGeometry x="860" y="585" width="30" height="60" as="geometry" />
        </mxCell>
        <mxCell id="u48JciJkg6jwbKqmyjxf-41" value="SQL Database" style="html=1;whiteSpace=wrap;" parent="1" vertex="1">
          <mxGeometry x="70" y="-210" width="110" height="50" as="geometry" />
        </mxCell>
        <mxCell id="u48JciJkg6jwbKqmyjxf-42" value="Node Js" style="html=1;whiteSpace=wrap;" parent="1" vertex="1">
          <mxGeometry x="280" y="-210" width="110" height="50" as="geometry" />
        </mxCell>
        <mxCell id="u48JciJkg6jwbKqmyjxf-43" value="Website&lt;div&gt;(frontend)&lt;/div&gt;" style="html=1;whiteSpace=wrap;" parent="1" vertex="1">
          <mxGeometry x="280" y="-360" width="110" height="50" as="geometry" />
        </mxCell>
        <mxCell id="u48JciJkg6jwbKqmyjxf-44" value="" style="endArrow=classic;startArrow=classic;html=1;rounded=0;" parent="1" source="u48JciJkg6jwbKqmyjxf-41" target="u48JciJkg6jwbKqmyjxf-42" edge="1">
          <mxGeometry width="50" height="50" relative="1" as="geometry">
            <mxPoint x="310" y="-100" as="sourcePoint" />
            <mxPoint x="360" y="-150" as="targetPoint" />
          </mxGeometry>
        </mxCell>
        <mxCell id="u48JciJkg6jwbKqmyjxf-45" value="" style="endArrow=classic;startArrow=classic;html=1;rounded=0;" parent="1" source="u48JciJkg6jwbKqmyjxf-42" target="u48JciJkg6jwbKqmyjxf-43" edge="1">
          <mxGeometry width="50" height="50" relative="1" as="geometry">
            <mxPoint x="190" y="-175" as="sourcePoint" />
            <mxPoint x="290" y="-175" as="targetPoint" />
          </mxGeometry>
        </mxCell>
        <mxCell id="u48JciJkg6jwbKqmyjxf-48" value="" style="endArrow=none;html=1;endSize=12;startArrow=diamondThin;startSize=14;startFill=0;edgeStyle=orthogonalEdgeStyle;align=left;verticalAlign=bottom;rounded=0;" parent="1" source="u48JciJkg6jwbKqmyjxf-5" target="u48JciJkg6jwbKqmyjxf-9" edge="1">
          <mxGeometry x="-1" y="3" relative="1" as="geometry">
            <mxPoint x="540" y="370" as="sourcePoint" />
            <mxPoint x="700" y="370" as="targetPoint" />
          </mxGeometry>
        </mxCell>
        <mxCell id="u48JciJkg6jwbKqmyjxf-50" value="&lt;div&gt;&lt;br&gt;&lt;/div&gt;" style="edgeLabel;html=1;align=center;verticalAlign=middle;resizable=0;points=[];" parent="u48JciJkg6jwbKqmyjxf-48" vertex="1" connectable="0">
          <mxGeometry x="-0.5758" relative="1" as="geometry">
            <mxPoint as="offset" />
          </mxGeometry>
        </mxCell>
        <mxCell id="u48JciJkg6jwbKqmyjxf-56" value="1" style="edgeLabel;html=1;align=center;verticalAlign=middle;resizable=0;points=[];" parent="u48JciJkg6jwbKqmyjxf-48" vertex="1" connectable="0">
          <mxGeometry x="-0.6889" y="-1" relative="1" as="geometry">
            <mxPoint as="offset" />
          </mxGeometry>
        </mxCell>
        <mxCell id="u48JciJkg6jwbKqmyjxf-57" value="1" style="edgeLabel;html=1;align=center;verticalAlign=middle;resizable=0;points=[];" parent="u48JciJkg6jwbKqmyjxf-48" vertex="1" connectable="0">
          <mxGeometry x="0.7594" y="-1" relative="1" as="geometry">
            <mxPoint as="offset" />
          </mxGeometry>
        </mxCell>
        <mxCell id="u48JciJkg6jwbKqmyjxf-53" value="" style="endArrow=none;html=1;rounded=0;edgeStyle=orthogonalEdgeStyle;" parent="1" source="u48JciJkg6jwbKqmyjxf-1" target="u48JciJkg6jwbKqmyjxf-5" edge="1">
          <mxGeometry width="50" height="50" relative="1" as="geometry">
            <mxPoint x="310" y="130" as="sourcePoint" />
            <mxPoint x="360" y="80" as="targetPoint" />
          </mxGeometry>
        </mxCell>
        <mxCell id="u48JciJkg6jwbKqmyjxf-54" value="1" style="edgeLabel;html=1;align=center;verticalAlign=middle;resizable=0;points=[];" parent="u48JciJkg6jwbKqmyjxf-53" vertex="1" connectable="0">
          <mxGeometry x="-0.6332" y="-1" relative="1" as="geometry">
            <mxPoint as="offset" />
          </mxGeometry>
        </mxCell>
        <mxCell id="u48JciJkg6jwbKqmyjxf-55" value="0...*" style="edgeLabel;html=1;align=center;verticalAlign=middle;resizable=0;points=[];" parent="u48JciJkg6jwbKqmyjxf-53" vertex="1" connectable="0">
          <mxGeometry x="0.6844" y="2" relative="1" as="geometry">
            <mxPoint as="offset" />
          </mxGeometry>
        </mxCell>
        <mxCell id="YwEYViXFh9HPwHyrhcnI-1" value="" style="edgeStyle=none;html=1;endArrow=none;verticalAlign=bottom;rounded=0;entryX=0.5;entryY=0.5;entryDx=0;entryDy=0;entryPerimeter=0;exitX=0.5;exitY=0.5;exitDx=0;exitDy=0;exitPerimeter=0;" parent="1" source="u48JciJkg6jwbKqmyjxf-33" target="u48JciJkg6jwbKqmyjxf-40" edge="1">
          <mxGeometry width="160" relative="1" as="geometry">
            <mxPoint x="471" y="759" as="sourcePoint" />
            <mxPoint x="785" y="580" as="targetPoint" />
          </mxGeometry>
        </mxCell>
        <mxCell id="YwEYViXFh9HPwHyrhcnI-2" value="" style="edgeStyle=none;html=1;endArrow=none;verticalAlign=bottom;rounded=0;entryX=0.5;entryY=0.5;entryDx=0;entryDy=0;entryPerimeter=0;" parent="1" source="u48JciJkg6jwbKqmyjxf-21" target="u48JciJkg6jwbKqmyjxf-40" edge="1">
          <mxGeometry width="160" relative="1" as="geometry">
            <mxPoint x="481" y="769" as="sourcePoint" />
            <mxPoint x="795" y="590" as="targetPoint" />
          </mxGeometry>
        </mxCell>
        <mxCell id="YwEYViXFh9HPwHyrhcnI-3" value="" style="edgeStyle=none;html=1;endArrow=none;verticalAlign=bottom;rounded=0;entryX=0.5;entryY=0.5;entryDx=0;entryDy=0;entryPerimeter=0;" parent="1" source="u48JciJkg6jwbKqmyjxf-22" target="u48JciJkg6jwbKqmyjxf-40" edge="1">
          <mxGeometry width="160" relative="1" as="geometry">
            <mxPoint x="491" y="779" as="sourcePoint" />
            <mxPoint x="805" y="600" as="targetPoint" />
          </mxGeometry>
        </mxCell>
        <mxCell id="YwEYViXFh9HPwHyrhcnI-4" value="" style="ellipse;html=1;shape=startState;fillColor=#000000;strokeColor=#ff0000;" parent="1" vertex="1">
          <mxGeometry x="60" y="-675" width="30" height="30" as="geometry" />
        </mxCell>
        <mxCell id="YwEYViXFh9HPwHyrhcnI-5" value="" style="edgeStyle=orthogonalEdgeStyle;html=1;verticalAlign=bottom;endArrow=open;endSize=8;strokeColor=#ff0000;rounded=0;" parent="1" source="YwEYViXFh9HPwHyrhcnI-4" target="YwEYViXFh9HPwHyrhcnI-15" edge="1">
          <mxGeometry relative="1" as="geometry">
            <mxPoint x="160" y="-665" as="targetPoint" />
          </mxGeometry>
        </mxCell>
        <mxCell id="YwEYViXFh9HPwHyrhcnI-8" value="" style="rhombus;whiteSpace=wrap;html=1;fontColor=#000000;fillColor=#ffffc0;strokeColor=#ff0000;" parent="1" vertex="1">
          <mxGeometry x="540" y="-680" width="80" height="40" as="geometry" />
        </mxCell>
        <mxCell id="YwEYViXFh9HPwHyrhcnI-9" value="credentials rejected" style="edgeStyle=orthogonalEdgeStyle;html=1;align=left;verticalAlign=bottom;endArrow=open;endSize=8;strokeColor=#ff0000;rounded=0;" parent="1" source="YwEYViXFh9HPwHyrhcnI-8" target="YwEYViXFh9HPwHyrhcnI-19" edge="1">
          <mxGeometry x="0.2826" y="-40" relative="1" as="geometry">
            <mxPoint x="580" y="-530" as="targetPoint" />
            <Array as="points">
              <mxPoint x="580" y="-560" />
            </Array>
            <mxPoint as="offset" />
          </mxGeometry>
        </mxCell>
        <mxCell id="YwEYViXFh9HPwHyrhcnI-10" value="credentials accepted" style="edgeStyle=orthogonalEdgeStyle;html=1;align=left;verticalAlign=top;endArrow=open;endSize=8;strokeColor=#ff0000;rounded=0;" parent="1" source="YwEYViXFh9HPwHyrhcnI-8" target="YwEYViXFh9HPwHyrhcnI-17" edge="1">
          <mxGeometry x="-1" y="25" relative="1" as="geometry">
            <mxPoint x="710" y="-665" as="targetPoint" />
            <mxPoint as="offset" />
          </mxGeometry>
        </mxCell>
        <mxCell id="YwEYViXFh9HPwHyrhcnI-12" value="" style="ellipse;html=1;shape=endState;fillColor=#000000;strokeColor=#ff0000;" parent="1" vertex="1">
          <mxGeometry x="940" y="-675" width="30" height="30" as="geometry" />
        </mxCell>
        <mxCell id="YwEYViXFh9HPwHyrhcnI-13" value="Enters credentials" style="rounded=1;whiteSpace=wrap;html=1;arcSize=40;fontColor=#000000;fillColor=#ffffc0;strokeColor=#ff0000;" parent="1" vertex="1">
          <mxGeometry x="355" y="-680" width="120" height="40" as="geometry" />
        </mxCell>
        <mxCell id="YwEYViXFh9HPwHyrhcnI-14" value="" style="edgeStyle=orthogonalEdgeStyle;html=1;verticalAlign=bottom;endArrow=open;endSize=8;strokeColor=#ff0000;rounded=0;" parent="1" source="YwEYViXFh9HPwHyrhcnI-13" target="YwEYViXFh9HPwHyrhcnI-8" edge="1">
          <mxGeometry relative="1" as="geometry">
            <mxPoint x="540" y="-560" as="targetPoint" />
          </mxGeometry>
        </mxCell>
        <mxCell id="YwEYViXFh9HPwHyrhcnI-15" value="User selects log in" style="rounded=1;whiteSpace=wrap;html=1;arcSize=40;fontColor=#000000;fillColor=#ffffc0;strokeColor=#ff0000;" parent="1" vertex="1">
          <mxGeometry x="175" y="-680" width="120" height="40" as="geometry" />
        </mxCell>
        <mxCell id="YwEYViXFh9HPwHyrhcnI-16" value="" style="edgeStyle=orthogonalEdgeStyle;html=1;verticalAlign=bottom;endArrow=open;endSize=8;strokeColor=#ff0000;rounded=0;" parent="1" source="YwEYViXFh9HPwHyrhcnI-15" target="YwEYViXFh9HPwHyrhcnI-13" edge="1">
          <mxGeometry relative="1" as="geometry">
            <mxPoint x="235" y="-500" as="targetPoint" />
          </mxGeometry>
        </mxCell>
        <mxCell id="YwEYViXFh9HPwHyrhcnI-17" value="System goes to user account and initiates JWT token" style="rounded=1;whiteSpace=wrap;html=1;arcSize=40;fontColor=#000000;fillColor=#ffffc0;strokeColor=#ff0000;" parent="1" vertex="1">
          <mxGeometry x="740" y="-690" width="120" height="60" as="geometry" />
        </mxCell>
        <mxCell id="YwEYViXFh9HPwHyrhcnI-18" value="" style="edgeStyle=orthogonalEdgeStyle;html=1;verticalAlign=bottom;endArrow=open;endSize=8;strokeColor=#ff0000;rounded=0;" parent="1" source="YwEYViXFh9HPwHyrhcnI-17" target="YwEYViXFh9HPwHyrhcnI-12" edge="1">
          <mxGeometry relative="1" as="geometry">
            <mxPoint x="540" y="-560" as="targetPoint" />
          </mxGeometry>
        </mxCell>
        <mxCell id="YwEYViXFh9HPwHyrhcnI-19" value="System tells user to try again" style="rounded=1;whiteSpace=wrap;html=1;arcSize=40;fontColor=#000000;fillColor=#ffffc0;strokeColor=#ff0000;" parent="1" vertex="1">
          <mxGeometry x="355" y="-580" width="120" height="40" as="geometry" />
        </mxCell>
        <mxCell id="YwEYViXFh9HPwHyrhcnI-20" value="" style="edgeStyle=orthogonalEdgeStyle;html=1;verticalAlign=bottom;endArrow=open;endSize=8;strokeColor=#ff0000;rounded=0;" parent="1" source="YwEYViXFh9HPwHyrhcnI-19" target="YwEYViXFh9HPwHyrhcnI-13" edge="1">
          <mxGeometry relative="1" as="geometry">
            <mxPoint x="415" y="-480" as="targetPoint" />
          </mxGeometry>
        </mxCell>
        <mxCell id="YwEYViXFh9HPwHyrhcnI-27" value="" style="ellipse;html=1;shape=startState;fillColor=#000000;strokeColor=#ff0000;" parent="1" vertex="1">
          <mxGeometry x="70" y="-950" width="30" height="30" as="geometry" />
        </mxCell>
        <mxCell id="YwEYViXFh9HPwHyrhcnI-28" value="" style="edgeStyle=orthogonalEdgeStyle;html=1;verticalAlign=bottom;endArrow=open;endSize=8;strokeColor=#ff0000;rounded=0;" parent="1" source="YwEYViXFh9HPwHyrhcnI-27" target="YwEYViXFh9HPwHyrhcnI-29" edge="1">
          <mxGeometry relative="1" as="geometry">
            <mxPoint x="85" y="-860" as="targetPoint" />
          </mxGeometry>
        </mxCell>
        <mxCell id="YwEYViXFh9HPwHyrhcnI-29" value="User selects event" style="rounded=1;whiteSpace=wrap;html=1;arcSize=40;fontColor=#000000;fillColor=#ffffc0;strokeColor=#ff0000;" parent="1" vertex="1">
          <mxGeometry x="185" y="-955" width="120" height="40" as="geometry" />
        </mxCell>
        <mxCell id="YwEYViXFh9HPwHyrhcnI-30" value="" style="rhombus;whiteSpace=wrap;html=1;fontColor=#000000;fillColor=#ffffc0;strokeColor=#ff0000;" parent="1" vertex="1">
          <mxGeometry x="380" y="-955" width="80" height="40" as="geometry" />
        </mxCell>
        <mxCell id="YwEYViXFh9HPwHyrhcnI-31" value="modify event" style="edgeStyle=orthogonalEdgeStyle;html=1;align=left;verticalAlign=bottom;endArrow=open;endSize=8;strokeColor=#ff0000;rounded=0;" parent="1" source="YwEYViXFh9HPwHyrhcnI-30" target="YwEYViXFh9HPwHyrhcnI-42" edge="1">
          <mxGeometry x="-1" relative="1" as="geometry">
            <mxPoint x="560" y="-935" as="targetPoint" />
          </mxGeometry>
        </mxCell>
        <mxCell id="YwEYViXFh9HPwHyrhcnI-32" value="delete event" style="edgeStyle=orthogonalEdgeStyle;html=1;align=left;verticalAlign=top;endArrow=open;endSize=8;strokeColor=#ff0000;rounded=0;" parent="1" source="YwEYViXFh9HPwHyrhcnI-30" edge="1">
          <mxGeometry x="-0.5042" y="-30" relative="1" as="geometry">
            <mxPoint x="420" y="-855" as="targetPoint" />
            <mxPoint as="offset" />
          </mxGeometry>
        </mxCell>
        <mxCell id="YwEYViXFh9HPwHyrhcnI-36" value="NodeJS tells SQL to delete event" style="rounded=1;whiteSpace=wrap;html=1;arcSize=40;fontColor=#000000;fillColor=#ffffc0;strokeColor=#ff0000;" parent="1" vertex="1">
          <mxGeometry x="360" y="-850" width="120" height="40" as="geometry" />
        </mxCell>
        <mxCell id="YwEYViXFh9HPwHyrhcnI-37" value="" style="edgeStyle=orthogonalEdgeStyle;html=1;verticalAlign=bottom;endArrow=open;endSize=8;strokeColor=#ff0000;rounded=0;" parent="1" source="YwEYViXFh9HPwHyrhcnI-36" target="YwEYViXFh9HPwHyrhcnI-38" edge="1">
          <mxGeometry relative="1" as="geometry">
            <mxPoint x="660" y="-855" as="targetPoint" />
          </mxGeometry>
        </mxCell>
        <mxCell id="YwEYViXFh9HPwHyrhcnI-38" value="SQL database deletes event" style="rounded=1;whiteSpace=wrap;html=1;arcSize=40;fontColor=#000000;fillColor=#ffffc0;strokeColor=#ff0000;" parent="1" vertex="1">
          <mxGeometry x="630" y="-850" width="120" height="40" as="geometry" />
        </mxCell>
        <mxCell id="YwEYViXFh9HPwHyrhcnI-39" value="" style="edgeStyle=orthogonalEdgeStyle;html=1;verticalAlign=bottom;endArrow=open;endSize=8;strokeColor=#ff0000;rounded=0;" parent="1" source="YwEYViXFh9HPwHyrhcnI-38" target="YwEYViXFh9HPwHyrhcnI-40" edge="1">
          <mxGeometry relative="1" as="geometry">
            <mxPoint x="700" y="-800" as="targetPoint" />
          </mxGeometry>
        </mxCell>
        <mxCell id="YwEYViXFh9HPwHyrhcnI-40" value="" style="ellipse;html=1;shape=endState;fillColor=#000000;strokeColor=#ff0000;" parent="1" vertex="1">
          <mxGeometry x="910" y="-845" width="30" height="30" as="geometry" />
        </mxCell>
        <mxCell id="YwEYViXFh9HPwHyrhcnI-41" value="" style="edgeStyle=orthogonalEdgeStyle;html=1;verticalAlign=bottom;endArrow=open;endSize=8;strokeColor=#ff0000;rounded=0;" parent="1" source="YwEYViXFh9HPwHyrhcnI-29" target="YwEYViXFh9HPwHyrhcnI-30" edge="1">
          <mxGeometry relative="1" as="geometry">
            <mxPoint x="640" y="-820" as="targetPoint" />
            <mxPoint x="490" y="-820" as="sourcePoint" />
          </mxGeometry>
        </mxCell>
        <mxCell id="YwEYViXFh9HPwHyrhcnI-42" value="user makes modification" style="rounded=1;whiteSpace=wrap;html=1;arcSize=40;fontColor=#000000;fillColor=#ffffc0;strokeColor=#ff0000;" parent="1" vertex="1">
          <mxGeometry x="630" y="-955" width="120" height="40" as="geometry" />
        </mxCell>
        <mxCell id="YwEYViXFh9HPwHyrhcnI-43" value="" style="edgeStyle=orthogonalEdgeStyle;html=1;verticalAlign=bottom;endArrow=open;endSize=8;strokeColor=#ff0000;rounded=0;" parent="1" source="YwEYViXFh9HPwHyrhcnI-42" target="YwEYViXFh9HPwHyrhcnI-44" edge="1">
          <mxGeometry relative="1" as="geometry">
            <mxPoint x="640" y="-1080" as="targetPoint" />
          </mxGeometry>
        </mxCell>
        <mxCell id="YwEYViXFh9HPwHyrhcnI-44" value="NodeJs sends modification to SQL" style="rounded=1;whiteSpace=wrap;html=1;arcSize=40;fontColor=#000000;fillColor=#ffffc0;strokeColor=#ff0000;" parent="1" vertex="1">
          <mxGeometry x="630" y="-1050" width="120" height="40" as="geometry" />
        </mxCell>
        <mxCell id="YwEYViXFh9HPwHyrhcnI-45" value="" style="edgeStyle=orthogonalEdgeStyle;html=1;verticalAlign=bottom;endArrow=open;endSize=8;strokeColor=#ff0000;rounded=0;" parent="1" source="YwEYViXFh9HPwHyrhcnI-44" target="YwEYViXFh9HPwHyrhcnI-47" edge="1">
          <mxGeometry relative="1" as="geometry">
            <mxPoint x="450" y="-980" as="targetPoint" />
          </mxGeometry>
        </mxCell>
        <mxCell id="YwEYViXFh9HPwHyrhcnI-47" value="SQL changes event in database" style="rounded=1;whiteSpace=wrap;html=1;arcSize=40;fontColor=#000000;fillColor=#ffffc0;strokeColor=#ff0000;" parent="1" vertex="1">
          <mxGeometry x="865" y="-1050" width="120" height="40" as="geometry" />
        </mxCell>
        <mxCell id="YwEYViXFh9HPwHyrhcnI-48" value="" style="edgeStyle=orthogonalEdgeStyle;html=1;verticalAlign=bottom;endArrow=open;endSize=8;strokeColor=#ff0000;rounded=0;" parent="1" source="YwEYViXFh9HPwHyrhcnI-47" target="YwEYViXFh9HPwHyrhcnI-40" edge="1">
          <mxGeometry relative="1" as="geometry">
            <mxPoint x="850" y="-1090" as="targetPoint" />
            <mxPoint x="710" y="-1090" as="sourcePoint" />
          </mxGeometry>
        </mxCell>
        <mxCell id="YwEYViXFh9HPwHyrhcnI-49" value="" style="ellipse;html=1;shape=startState;fillColor=#000000;strokeColor=#ff0000;" parent="1" vertex="1">
          <mxGeometry x="70" y="-1295" width="30" height="30" as="geometry" />
        </mxCell>
        <mxCell id="YwEYViXFh9HPwHyrhcnI-50" value="" style="edgeStyle=orthogonalEdgeStyle;html=1;verticalAlign=bottom;endArrow=open;endSize=8;strokeColor=#ff0000;rounded=0;" parent="1" source="YwEYViXFh9HPwHyrhcnI-49" target="YwEYViXFh9HPwHyrhcnI-51" edge="1">
          <mxGeometry relative="1" as="geometry">
            <mxPoint x="85" y="-1210" as="targetPoint" />
          </mxGeometry>
        </mxCell>
        <mxCell id="YwEYViXFh9HPwHyrhcnI-51" value="User selects create account" style="rounded=1;whiteSpace=wrap;html=1;arcSize=40;fontColor=#000000;fillColor=#ffffc0;strokeColor=#ff0000;" parent="1" vertex="1">
          <mxGeometry x="175" y="-1300" width="120" height="40" as="geometry" />
        </mxCell>
        <mxCell id="YwEYViXFh9HPwHyrhcnI-52" value="" style="edgeStyle=orthogonalEdgeStyle;html=1;verticalAlign=bottom;endArrow=open;endSize=8;strokeColor=#ff0000;rounded=0;" parent="1" source="YwEYViXFh9HPwHyrhcnI-51" target="YwEYViXFh9HPwHyrhcnI-54" edge="1">
          <mxGeometry relative="1" as="geometry">
            <mxPoint x="235" y="-1200" as="targetPoint" />
          </mxGeometry>
        </mxCell>
        <mxCell id="YwEYViXFh9HPwHyrhcnI-54" value="User inputs info and submits" style="rounded=1;whiteSpace=wrap;html=1;arcSize=40;fontColor=#000000;fillColor=#ffffc0;strokeColor=#ff0000;" parent="1" vertex="1">
          <mxGeometry x="360" y="-1300" width="120" height="40" as="geometry" />
        </mxCell>
        <mxCell id="YwEYViXFh9HPwHyrhcnI-55" value="" style="edgeStyle=orthogonalEdgeStyle;html=1;verticalAlign=bottom;endArrow=open;endSize=8;strokeColor=#ff0000;rounded=0;" parent="1" source="YwEYViXFh9HPwHyrhcnI-54" target="YwEYViXFh9HPwHyrhcnI-56" edge="1">
          <mxGeometry relative="1" as="geometry">
            <mxPoint x="420" y="-1200" as="targetPoint" />
          </mxGeometry>
        </mxCell>
        <mxCell id="YwEYViXFh9HPwHyrhcnI-56" value="" style="rhombus;whiteSpace=wrap;html=1;fontColor=#000000;fillColor=#ffffc0;strokeColor=#ff0000;" parent="1" vertex="1">
          <mxGeometry x="560" y="-1300" width="80" height="40" as="geometry" />
        </mxCell>
        <mxCell id="YwEYViXFh9HPwHyrhcnI-57" value="username free" style="edgeStyle=orthogonalEdgeStyle;html=1;align=left;verticalAlign=bottom;endArrow=open;endSize=8;strokeColor=#ff0000;rounded=0;" parent="1" source="YwEYViXFh9HPwHyrhcnI-56" target="YwEYViXFh9HPwHyrhcnI-61" edge="1">
          <mxGeometry x="-1" relative="1" as="geometry">
            <mxPoint x="740" y="-1280" as="targetPoint" />
          </mxGeometry>
        </mxCell>
        <mxCell id="YwEYViXFh9HPwHyrhcnI-58" value="username already&lt;div&gt;used&lt;/div&gt;" style="edgeStyle=orthogonalEdgeStyle;html=1;align=center;verticalAlign=top;endArrow=open;endSize=8;strokeColor=#ff0000;rounded=0;" parent="1" source="YwEYViXFh9HPwHyrhcnI-56" target="YwEYViXFh9HPwHyrhcnI-59" edge="1">
          <mxGeometry x="-0.5" relative="1" as="geometry">
            <mxPoint x="600" y="-1200" as="targetPoint" />
            <Array as="points">
              <mxPoint x="600" y="-1180" />
            </Array>
            <mxPoint as="offset" />
          </mxGeometry>
        </mxCell>
        <mxCell id="YwEYViXFh9HPwHyrhcnI-59" value="System prompts user for different name" style="rounded=1;whiteSpace=wrap;html=1;arcSize=40;fontColor=#000000;fillColor=#ffffc0;strokeColor=#ff0000;" parent="1" vertex="1">
          <mxGeometry x="360" y="-1200" width="120" height="40" as="geometry" />
        </mxCell>
        <mxCell id="YwEYViXFh9HPwHyrhcnI-60" value="" style="edgeStyle=orthogonalEdgeStyle;html=1;verticalAlign=bottom;endArrow=open;endSize=8;strokeColor=#ff0000;rounded=0;" parent="1" source="YwEYViXFh9HPwHyrhcnI-59" target="YwEYViXFh9HPwHyrhcnI-54" edge="1">
          <mxGeometry relative="1" as="geometry">
            <mxPoint x="420" y="-1100" as="targetPoint" />
          </mxGeometry>
        </mxCell>
        <mxCell id="YwEYViXFh9HPwHyrhcnI-61" value="User info added to database" style="rounded=1;whiteSpace=wrap;html=1;arcSize=40;fontColor=#000000;fillColor=#ffffc0;strokeColor=#ff0000;" parent="1" vertex="1">
          <mxGeometry x="750" y="-1300" width="120" height="40" as="geometry" />
        </mxCell>
        <mxCell id="YwEYViXFh9HPwHyrhcnI-62" value="" style="edgeStyle=orthogonalEdgeStyle;html=1;verticalAlign=bottom;endArrow=open;endSize=8;strokeColor=#ff0000;rounded=0;" parent="1" source="YwEYViXFh9HPwHyrhcnI-61" target="YwEYViXFh9HPwHyrhcnI-64" edge="1">
          <mxGeometry relative="1" as="geometry">
            <mxPoint x="810" y="-1200" as="targetPoint" />
          </mxGeometry>
        </mxCell>
        <mxCell id="YwEYViXFh9HPwHyrhcnI-64" value="User prompted to log in" style="rounded=1;whiteSpace=wrap;html=1;arcSize=40;fontColor=#000000;fillColor=#ffffc0;strokeColor=#ff0000;" parent="1" vertex="1">
          <mxGeometry x="910" y="-1300" width="120" height="40" as="geometry" />
        </mxCell>
        <mxCell id="YwEYViXFh9HPwHyrhcnI-65" value="" style="edgeStyle=orthogonalEdgeStyle;html=1;verticalAlign=bottom;endArrow=open;endSize=8;strokeColor=#ff0000;rounded=0;" parent="1" source="YwEYViXFh9HPwHyrhcnI-64" target="YwEYViXFh9HPwHyrhcnI-66" edge="1">
          <mxGeometry relative="1" as="geometry">
            <mxPoint x="960" y="-1175" as="targetPoint" />
          </mxGeometry>
        </mxCell>
        <mxCell id="YwEYViXFh9HPwHyrhcnI-66" value="" style="ellipse;html=1;shape=endState;fillColor=#000000;strokeColor=#ff0000;" parent="1" vertex="1">
          <mxGeometry x="955" y="-1200" width="30" height="30" as="geometry" />
        </mxCell>
        <mxCell id="YwEYViXFh9HPwHyrhcnI-67" value="Website" style="shape=folder;fontStyle=1;spacingTop=10;tabWidth=40;tabHeight=14;tabPosition=left;html=1;whiteSpace=wrap;" parent="1" vertex="1">
          <mxGeometry x="770" y="-490" width="130" height="70" as="geometry" />
        </mxCell>
        <mxCell id="YwEYViXFh9HPwHyrhcnI-68" value="NodeJs" style="shape=folder;fontStyle=1;spacingTop=10;tabWidth=40;tabHeight=14;tabPosition=left;html=1;whiteSpace=wrap;" parent="1" vertex="1">
          <mxGeometry x="770" y="-380" width="130" height="70" as="geometry" />
        </mxCell>
        <mxCell id="YwEYViXFh9HPwHyrhcnI-69" value="Database" style="shape=folder;fontStyle=1;spacingTop=10;tabWidth=40;tabHeight=14;tabPosition=left;html=1;whiteSpace=wrap;verticalAlign=top;" parent="1" vertex="1">
          <mxGeometry x="690" y="-250" width="290" height="120" as="geometry" />
        </mxCell>
        <mxCell id="YwEYViXFh9HPwHyrhcnI-70" value="Events" style="shape=folder;fontStyle=1;spacingTop=10;tabWidth=40;tabHeight=14;tabPosition=left;html=1;whiteSpace=wrap;" parent="1" vertex="1">
          <mxGeometry x="800" y="-200" width="70" height="50" as="geometry" />
        </mxCell>
        <mxCell id="YwEYViXFh9HPwHyrhcnI-71" value="" style="endArrow=open;endSize=12;dashed=1;html=1;rounded=0;" parent="1" source="YwEYViXFh9HPwHyrhcnI-67" target="YwEYViXFh9HPwHyrhcnI-68" edge="1">
          <mxGeometry width="160" relative="1" as="geometry">
            <mxPoint x="610" y="-260" as="sourcePoint" />
            <mxPoint x="770" y="-260" as="targetPoint" />
          </mxGeometry>
        </mxCell>
        <mxCell id="YwEYViXFh9HPwHyrhcnI-72" value="" style="endArrow=open;endSize=12;dashed=1;html=1;rounded=0;" parent="1" source="YwEYViXFh9HPwHyrhcnI-68" target="YwEYViXFh9HPwHyrhcnI-69" edge="1">
          <mxGeometry width="160" relative="1" as="geometry">
            <mxPoint x="850" y="-340" as="sourcePoint" />
            <mxPoint x="845" y="-370" as="targetPoint" />
          </mxGeometry>
        </mxCell>
        <mxCell id="3n1oB_12dKx8cGzKArvL-1" value="Check for already existing username" style="ellipse;whiteSpace=wrap;html=1;" vertex="1" parent="1">
          <mxGeometry x="560" y="400" width="140" height="70" as="geometry" />
        </mxCell>
        <mxCell id="3n1oB_12dKx8cGzKArvL-2" value="&amp;lt;&amp;lt;include&amp;gt;&amp;gt;" style="edgeStyle=none;html=1;endArrow=open;verticalAlign=bottom;dashed=1;labelBackgroundColor=none;rounded=0;" edge="1" parent="1" source="u48JciJkg6jwbKqmyjxf-17" target="3n1oB_12dKx8cGzKArvL-1">
          <mxGeometry width="160" relative="1" as="geometry">
            <mxPoint x="470" y="680" as="sourcePoint" />
            <mxPoint x="630" y="680" as="targetPoint" />
          </mxGeometry>
        </mxCell>
        <mxCell id="3n1oB_12dKx8cGzKArvL-3" value="Authenticate" style="ellipse;whiteSpace=wrap;html=1;" vertex="1" parent="1">
          <mxGeometry x="560" y="500" width="140" height="70" as="geometry" />
        </mxCell>
        <mxCell id="3n1oB_12dKx8cGzKArvL-5" value="&amp;lt;&amp;lt;include&amp;gt;&amp;gt;" style="edgeStyle=none;html=1;endArrow=open;verticalAlign=bottom;dashed=1;labelBackgroundColor=none;rounded=0;" edge="1" parent="1" source="u48JciJkg6jwbKqmyjxf-18" target="3n1oB_12dKx8cGzKArvL-3">
          <mxGeometry width="160" relative="1" as="geometry">
            <mxPoint x="470" y="680" as="sourcePoint" />
            <mxPoint x="630" y="680" as="targetPoint" />
          </mxGeometry>
        </mxCell>
        <mxCell id="3n1oB_12dKx8cGzKArvL-6" value="" style="edgeStyle=none;html=1;endArrow=none;verticalAlign=bottom;rounded=0;entryX=0.5;entryY=0.5;entryDx=0;entryDy=0;entryPerimeter=0;" edge="1" parent="1" source="3n1oB_12dKx8cGzKArvL-3" target="u48JciJkg6jwbKqmyjxf-40">
          <mxGeometry width="160" relative="1" as="geometry">
            <mxPoint x="490" y="639" as="sourcePoint" />
            <mxPoint x="885" y="520" as="targetPoint" />
          </mxGeometry>
        </mxCell>
        <mxCell id="3n1oB_12dKx8cGzKArvL-7" value="Check for required info" style="ellipse;whiteSpace=wrap;html=1;" vertex="1" parent="1">
          <mxGeometry x="560" y="600" width="140" height="70" as="geometry" />
        </mxCell>
        <mxCell id="3n1oB_12dKx8cGzKArvL-9" value="&amp;lt;&amp;lt;include&amp;gt;&amp;gt;" style="edgeStyle=none;html=1;endArrow=open;verticalAlign=bottom;dashed=1;labelBackgroundColor=none;rounded=0;" edge="1" parent="1" source="u48JciJkg6jwbKqmyjxf-19" target="3n1oB_12dKx8cGzKArvL-7">
          <mxGeometry width="160" relative="1" as="geometry">
            <mxPoint x="499" y="559" as="sourcePoint" />
            <mxPoint x="571" y="552" as="targetPoint" />
          </mxGeometry>
        </mxCell>
        <mxCell id="3n1oB_12dKx8cGzKArvL-10" value="Types" style="shape=folder;fontStyle=1;spacingTop=10;tabWidth=40;tabHeight=14;tabPosition=left;html=1;whiteSpace=wrap;" vertex="1" parent="1">
          <mxGeometry x="885" y="-200" width="70" height="50" as="geometry" />
        </mxCell>
        <mxCell id="3n1oB_12dKx8cGzKArvL-11" value="Users" style="shape=folder;fontStyle=1;spacingTop=10;tabWidth=40;tabHeight=14;tabPosition=left;html=1;whiteSpace=wrap;" vertex="1" parent="1">
          <mxGeometry x="710" y="-200" width="70" height="50" as="geometry" />
        </mxCell>
      </root>
    </mxGraphModel>
  </diagram>
</mxfile>
